<svg width="526" height="78" viewBox="0 0 526 78" fill="none" xmlns="http://www.w3.org/2000/svg">
<g clip-path="url(#clip0_4632_11004)">
<path d="M47.176 65C47.176 72.1798 41.3554 77.9999 34.1756 77.9999C26.9958 77.9999 21.1758 72.1798 21.1758 65C21.1758 57.8202 26.9958 51.9996 34.1756 51.9996C41.3554 51.9996 47.176 57.8202 47.176 65Z" fill="#FFBA08"/>
<path opacity="0.3" d="M47.176 65.0004C47.176 72.1802 41.3554 78.0002 34.1756 78.0002C26.9958 78.0002 21.1758 72.1802 21.1758 65.0004C21.1758 57.8206 26.9958 52 34.1756 52C41.3554 52 47.176 57.8206 47.176 65.0004Z" fill="#EF4444"/>
<path d="M56.9516 38.7437C45.934 37.1703 37.426 27.6964 37.426 16.2504C37.426 13 38.121 9.9162 39.3529 7.11748C37.689 6.72769 35.9603 6.50037 34.1756 6.50037C21.631 6.50037 11.4258 16.705 11.4258 29.2502V38.3111C11.4258 44.7428 8.60802 50.8139 3.66458 54.9933C2.4006 56.0722 1.67578 57.6486 1.67578 59.3125C1.67578 62.4492 4.22694 65.0004 7.36308 65.0004H60.9881C64.1248 65.0004 66.676 62.4492 66.676 59.3125C66.676 57.6486 65.9512 56.0722 64.6544 54.9641C59.8574 50.905 57.0753 45.0124 56.9516 38.7437Z" fill="url(#paint0_linear_4632_11004)"/>
<path d="M76.4262 16.2502C76.4262 25.2248 69.1506 32.4998 60.176 32.4998C51.2014 32.4998 43.9258 25.2248 43.9258 16.2502C43.9258 7.2756 51.2014 0 60.176 0C69.1506 0 76.4262 7.2756 76.4262 16.2502Z" fill="url(#paint1_linear_4632_11004)"/>
</g>
<path d="M118.208 31.36C116.928 31.36 115.772 31.136 114.74 30.688C113.716 30.232 112.872 29.584 112.208 28.744C111.552 27.896 111.136 26.888 110.96 25.72L114.368 25.216C114.608 26.208 115.104 26.972 115.856 27.508C116.608 28.044 117.464 28.312 118.424 28.312C118.96 28.312 119.48 28.228 119.984 28.06C120.488 27.892 120.9 27.644 121.22 27.316C121.548 26.988 121.712 26.584 121.712 26.104C121.712 25.928 121.684 25.76 121.628 25.6C121.58 25.432 121.496 25.276 121.376 25.132C121.256 24.988 121.084 24.852 120.86 24.724C120.644 24.596 120.368 24.48 120.032 24.376L115.544 23.056C115.208 22.96 114.816 22.824 114.368 22.648C113.928 22.472 113.5 22.22 113.084 21.892C112.668 21.564 112.32 21.132 112.04 20.596C111.768 20.052 111.632 19.368 111.632 18.544C111.632 17.384 111.924 16.42 112.508 15.652C113.092 14.884 113.872 14.312 114.848 13.936C115.824 13.56 116.904 13.376 118.088 13.384C119.28 13.4 120.344 13.604 121.28 13.996C122.216 14.388 123 14.96 123.632 15.712C124.264 16.456 124.72 17.368 125 18.448L121.472 19.048C121.344 18.488 121.108 18.016 120.764 17.632C120.42 17.248 120.008 16.956 119.528 16.756C119.056 16.556 118.56 16.448 118.04 16.432C117.528 16.416 117.044 16.488 116.588 16.648C116.14 16.8 115.772 17.024 115.484 17.32C115.204 17.616 115.064 17.968 115.064 18.376C115.064 18.752 115.18 19.06 115.412 19.3C115.644 19.532 115.936 19.72 116.288 19.864C116.64 20.008 117 20.128 117.368 20.224L120.368 21.04C120.816 21.16 121.312 21.32 121.856 21.52C122.4 21.712 122.92 21.984 123.416 22.336C123.92 22.68 124.332 23.136 124.652 23.704C124.98 24.272 125.144 24.992 125.144 25.864C125.144 26.792 124.948 27.604 124.556 28.3C124.172 28.988 123.652 29.56 122.996 30.016C122.34 30.464 121.596 30.8 120.764 31.024C119.94 31.248 119.088 31.36 118.208 31.36ZM132.606 31.384C131.59 31.384 130.762 31.212 130.122 30.868C129.482 30.524 128.982 30.088 128.622 29.56C128.27 29.032 128.018 28.484 127.866 27.916C127.714 27.34 127.622 26.816 127.59 26.344C127.558 25.872 127.542 25.528 127.542 25.312V18.04H130.854V24.16C130.854 24.456 130.87 24.836 130.902 25.3C130.934 25.756 131.034 26.216 131.202 26.68C131.37 27.144 131.642 27.532 132.018 27.844C132.402 28.156 132.942 28.312 133.638 28.312C133.918 28.312 134.218 28.268 134.538 28.18C134.858 28.092 135.158 27.924 135.438 27.676C135.718 27.42 135.946 27.048 136.122 26.56C136.306 26.064 136.398 25.416 136.398 24.616L138.27 25.504C138.27 26.528 138.062 27.488 137.646 28.384C137.23 29.28 136.602 30.004 135.762 30.556C134.93 31.108 133.878 31.384 132.606 31.384ZM136.806 31V26.704H136.398V18.04H139.686V31H136.806ZM149.399 31.36C148.111 31.36 147.035 31.06 146.171 30.46C145.307 29.86 144.655 29.044 144.215 28.012C143.783 26.98 143.567 25.816 143.567 24.52C143.567 23.224 143.783 22.06 144.215 21.028C144.647 19.996 145.283 19.18 146.123 18.58C146.963 17.98 147.999 17.68 149.231 17.68C150.471 17.68 151.551 17.976 152.471 18.568C153.391 19.16 154.103 19.972 154.607 21.004C155.119 22.028 155.375 23.2 155.375 24.52C155.375 25.816 155.123 26.98 154.619 28.012C154.123 29.044 153.427 29.86 152.531 30.46C151.635 31.06 150.591 31.36 149.399 31.36ZM143.015 31V13.72H146.303V22.12H145.895V31H143.015ZM148.871 28.456C149.575 28.456 150.151 28.28 150.599 27.928C151.047 27.576 151.379 27.104 151.595 26.512C151.811 25.912 151.919 25.248 151.919 24.52C151.919 23.8 151.807 23.144 151.583 22.552C151.359 21.952 151.011 21.476 150.539 21.124C150.075 20.764 149.479 20.584 148.751 20.584C148.071 20.584 147.519 20.748 147.095 21.076C146.679 21.404 146.375 21.864 146.183 22.456C145.991 23.048 145.895 23.736 145.895 24.52C145.895 25.304 145.991 25.992 146.183 26.584C146.375 27.176 146.687 27.636 147.119 27.964C147.559 28.292 148.143 28.456 148.871 28.456ZM162.728 31.36C161.096 31.36 159.776 30.992 158.768 30.256C157.768 29.512 157.16 28.464 156.944 27.112L160.28 26.608C160.416 27.216 160.716 27.692 161.18 28.036C161.652 28.38 162.248 28.552 162.968 28.552C163.56 28.552 164.016 28.44 164.336 28.216C164.656 27.984 164.816 27.664 164.816 27.256C164.816 27 164.752 26.796 164.624 26.644C164.496 26.484 164.208 26.328 163.76 26.176C163.32 26.024 162.632 25.824 161.696 25.576C160.64 25.304 159.796 25 159.164 24.664C158.532 24.328 158.076 23.928 157.796 23.464C157.516 22.992 157.376 22.424 157.376 21.76C157.376 20.928 157.588 20.208 158.012 19.6C158.436 18.984 159.032 18.512 159.8 18.184C160.576 17.848 161.488 17.68 162.536 17.68C163.552 17.68 164.452 17.836 165.236 18.148C166.02 18.46 166.652 18.904 167.132 19.48C167.62 20.056 167.92 20.736 168.032 21.52L164.696 22.12C164.64 21.64 164.432 21.26 164.072 20.98C163.712 20.7 163.224 20.536 162.608 20.488C162.008 20.448 161.524 20.528 161.156 20.728C160.796 20.928 160.616 21.216 160.616 21.592C160.616 21.816 160.692 22.004 160.844 22.156C161.004 22.308 161.328 22.464 161.816 22.624C162.312 22.784 163.064 22.992 164.072 23.248C165.056 23.504 165.844 23.804 166.436 24.148C167.036 24.484 167.472 24.892 167.744 25.372C168.016 25.844 168.152 26.416 168.152 27.088C168.152 28.416 167.672 29.46 166.712 30.22C165.752 30.98 164.424 31.36 162.728 31.36ZM176.501 31.36C175.157 31.36 174.005 31.06 173.045 30.46C172.085 29.86 171.349 29.044 170.837 28.012C170.325 26.98 170.069 25.816 170.069 24.52C170.069 23.208 170.333 22.036 170.861 21.004C171.397 19.972 172.149 19.16 173.117 18.568C174.085 17.976 175.229 17.68 176.549 17.68C178.077 17.68 179.357 18.068 180.389 18.844C181.429 19.612 182.093 20.664 182.381 22L179.117 22.864C178.925 22.192 178.589 21.668 178.109 21.292C177.637 20.916 177.101 20.728 176.501 20.728C175.813 20.728 175.249 20.896 174.809 21.232C174.369 21.56 174.045 22.012 173.837 22.588C173.629 23.156 173.525 23.8 173.525 24.52C173.525 25.648 173.773 26.564 174.269 27.268C174.773 27.964 175.517 28.312 176.501 28.312C177.237 28.312 177.797 28.144 178.181 27.808C178.565 27.472 178.853 26.992 179.045 26.368L182.381 27.064C182.013 28.44 181.317 29.5 180.293 30.244C179.269 30.988 178.005 31.36 176.501 31.36ZM184.782 31V18.04H187.662V21.208L187.35 20.8C187.518 20.352 187.742 19.944 188.022 19.576C188.302 19.208 188.646 18.904 189.054 18.664C189.366 18.472 189.706 18.324 190.074 18.22C190.442 18.108 190.822 18.04 191.214 18.016C191.606 17.984 191.998 17.992 192.39 18.04V21.088C192.03 20.976 191.61 20.94 191.13 20.98C190.658 21.012 190.23 21.12 189.846 21.304C189.462 21.48 189.138 21.716 188.874 22.012C188.61 22.3 188.41 22.644 188.274 23.044C188.138 23.436 188.07 23.88 188.07 24.376V31H184.782ZM194.912 16.24V13.36H198.176V16.24H194.912ZM194.912 31V18.04H198.176V31H194.912ZM208.134 31.36C206.846 31.36 205.77 31.06 204.906 30.46C204.042 29.86 203.39 29.044 202.95 28.012C202.518 26.98 202.302 25.816 202.302 24.52C202.302 23.224 202.518 22.06 202.95 21.028C203.382 19.996 204.018 19.18 204.858 18.58C205.698 17.98 206.734 17.68 207.966 17.68C209.206 17.68 210.286 17.976 211.206 18.568C212.126 19.16 212.838 19.972 213.342 21.004C213.854 22.028 214.11 23.2 214.11 24.52C214.11 25.816 213.858 26.98 213.354 28.012C212.858 29.044 212.162 29.86 211.266 30.46C210.37 31.06 209.326 31.36 208.134 31.36ZM201.75 31V13.72H205.038V22.12H204.63V31H201.75ZM207.606 28.456C208.31 28.456 208.886 28.28 209.334 27.928C209.782 27.576 210.114 27.104 210.33 26.512C210.546 25.912 210.654 25.248 210.654 24.52C210.654 23.8 210.542 23.144 210.318 22.552C210.094 21.952 209.746 21.476 209.274 21.124C208.81 20.764 208.214 20.584 207.486 20.584C206.806 20.584 206.254 20.748 205.83 21.076C205.414 21.404 205.11 21.864 204.918 22.456C204.726 23.048 204.63 23.736 204.63 24.52C204.63 25.304 204.726 25.992 204.918 26.584C205.11 27.176 205.422 27.636 205.854 27.964C206.294 28.292 206.878 28.456 207.606 28.456ZM222.774 31.36C221.446 31.36 220.274 31.076 219.258 30.508C218.25 29.932 217.458 29.144 216.882 28.144C216.314 27.136 216.03 25.984 216.03 24.688C216.03 23.272 216.31 22.04 216.87 20.992C217.43 19.944 218.202 19.132 219.186 18.556C220.17 17.972 221.302 17.68 222.582 17.68C223.942 17.68 225.098 18 226.05 18.64C227.002 19.28 227.706 20.18 228.162 21.34C228.618 22.5 228.778 23.864 228.642 25.432H225.414V24.232C225.414 22.912 225.202 21.964 224.778 21.388C224.362 20.804 223.678 20.512 222.726 20.512C221.614 20.512 220.794 20.852 220.266 21.532C219.746 22.204 219.486 23.2 219.486 24.52C219.486 25.728 219.746 26.664 220.266 27.328C220.794 27.984 221.566 28.312 222.582 28.312C223.222 28.312 223.77 28.172 224.226 27.892C224.682 27.612 225.03 27.208 225.27 26.68L228.534 27.616C228.046 28.8 227.274 29.72 226.218 30.376C225.17 31.032 224.022 31.36 222.774 31.36ZM218.478 25.432V23.008H227.07V25.432H218.478ZM243.933 31C243.037 31.168 242.157 31.24 241.293 31.216C240.437 31.2 239.669 31.052 238.989 30.772C238.317 30.484 237.805 30.024 237.453 29.392C237.133 28.8 236.965 28.2 236.949 27.592C236.933 26.976 236.925 26.28 236.925 25.504V14.44H240.189V25.312C240.189 25.816 240.193 26.272 240.201 26.68C240.217 27.08 240.301 27.4 240.453 27.64C240.741 28.096 241.201 28.344 241.833 28.384C242.465 28.424 243.165 28.392 243.933 28.288V31ZM234.717 20.56V18.04H243.933V20.56H234.717ZM251.95 31.36C250.646 31.36 249.502 31.068 248.518 30.484C247.534 29.9 246.766 29.096 246.214 28.072C245.67 27.04 245.398 25.856 245.398 24.52C245.398 23.168 245.678 21.98 246.238 20.956C246.798 19.924 247.57 19.12 248.554 18.544C249.538 17.968 250.67 17.68 251.95 17.68C253.254 17.68 254.398 17.972 255.382 18.556C256.374 19.14 257.146 19.948 257.698 20.98C258.25 22.004 258.526 23.184 258.526 24.52C258.526 25.864 258.246 27.052 257.686 28.084C257.134 29.108 256.362 29.912 255.37 30.496C254.386 31.072 253.246 31.36 251.95 31.36ZM251.95 28.312C252.998 28.312 253.778 27.96 254.29 27.256C254.81 26.544 255.07 25.632 255.07 24.52C255.07 23.368 254.806 22.448 254.278 21.76C253.758 21.072 252.982 20.728 251.95 20.728C251.238 20.728 250.654 20.888 250.198 21.208C249.742 21.528 249.402 21.972 249.178 22.54C248.962 23.108 248.854 23.768 248.854 24.52C248.854 25.68 249.114 26.604 249.634 27.292C250.162 27.972 250.934 28.312 251.95 28.312ZM271.801 31.36C270.497 31.36 269.353 31.068 268.369 30.484C267.385 29.9 266.617 29.096 266.065 28.072C265.521 27.04 265.249 25.856 265.249 24.52C265.249 23.168 265.529 21.98 266.089 20.956C266.649 19.924 267.421 19.12 268.405 18.544C269.389 17.968 270.521 17.68 271.801 17.68C273.105 17.68 274.249 17.972 275.233 18.556C276.225 19.14 276.997 19.948 277.549 20.98C278.101 22.004 278.377 23.184 278.377 24.52C278.377 25.864 278.097 27.052 277.537 28.084C276.985 29.108 276.213 29.912 275.221 30.496C274.237 31.072 273.097 31.36 271.801 31.36ZM271.801 28.312C272.849 28.312 273.629 27.96 274.141 27.256C274.661 26.544 274.921 25.632 274.921 24.52C274.921 23.368 274.657 22.448 274.129 21.76C273.609 21.072 272.833 20.728 271.801 20.728C271.089 20.728 270.505 20.888 270.049 21.208C269.593 21.528 269.253 21.972 269.029 22.54C268.813 23.108 268.705 23.768 268.705 24.52C268.705 25.68 268.965 26.604 269.485 27.292C270.013 27.972 270.785 28.312 271.801 28.312ZM285.84 31.384C284.824 31.384 283.996 31.212 283.356 30.868C282.716 30.524 282.216 30.088 281.856 29.56C281.504 29.032 281.252 28.484 281.1 27.916C280.948 27.34 280.856 26.816 280.824 26.344C280.792 25.872 280.776 25.528 280.776 25.312V18.04H284.088V24.16C284.088 24.456 284.104 24.836 284.136 25.3C284.168 25.756 284.268 26.216 284.436 26.68C284.604 27.144 284.876 27.532 285.252 27.844C285.636 28.156 286.176 28.312 286.872 28.312C287.152 28.312 287.452 28.268 287.772 28.18C288.092 28.092 288.392 27.924 288.672 27.676C288.952 27.42 289.18 27.048 289.356 26.56C289.54 26.064 289.632 25.416 289.632 24.616L291.504 25.504C291.504 26.528 291.296 27.488 290.88 28.384C290.464 29.28 289.836 30.004 288.996 30.556C288.164 31.108 287.112 31.384 285.84 31.384ZM290.04 31V26.704H289.632V18.04H292.92V31H290.04ZM296.274 31V18.04H299.154V21.208L298.842 20.8C299.01 20.352 299.234 19.944 299.514 19.576C299.794 19.208 300.138 18.904 300.546 18.664C300.858 18.472 301.198 18.324 301.566 18.22C301.934 18.108 302.314 18.04 302.706 18.016C303.098 17.984 303.49 17.992 303.882 18.04V21.088C303.522 20.976 303.102 20.94 302.622 20.98C302.15 21.012 301.722 21.12 301.338 21.304C300.954 21.48 300.63 21.716 300.366 22.012C300.102 22.3 299.902 22.644 299.766 23.044C299.63 23.436 299.562 23.88 299.562 24.376V31H296.274ZM319.801 31V24.88C319.801 24.584 319.785 24.208 319.753 23.752C319.721 23.288 319.621 22.824 319.453 22.36C319.285 21.896 319.009 21.508 318.625 21.196C318.249 20.884 317.713 20.728 317.017 20.728C316.737 20.728 316.437 20.772 316.117 20.86C315.797 20.948 315.497 21.12 315.217 21.376C314.937 21.624 314.705 21.992 314.521 22.48C314.345 22.968 314.257 23.616 314.257 24.424L312.385 23.536C312.385 22.512 312.593 21.552 313.009 20.656C313.425 19.76 314.049 19.036 314.881 18.484C315.721 17.932 316.777 17.656 318.049 17.656C319.065 17.656 319.893 17.828 320.533 18.172C321.173 18.516 321.669 18.952 322.021 19.48C322.381 20.008 322.637 20.56 322.789 21.136C322.941 21.704 323.033 22.224 323.065 22.696C323.097 23.168 323.113 23.512 323.113 23.728V31H319.801ZM310.945 31V18.04H313.849V22.336H314.257V31H310.945ZM332.017 31.36C330.689 31.36 329.517 31.076 328.501 30.508C327.493 29.932 326.701 29.144 326.125 28.144C325.557 27.136 325.273 25.984 325.273 24.688C325.273 23.272 325.553 22.04 326.113 20.992C326.673 19.944 327.445 19.132 328.429 18.556C329.413 17.972 330.545 17.68 331.825 17.68C333.185 17.68 334.341 18 335.293 18.64C336.245 19.28 336.949 20.18 337.405 21.34C337.861 22.5 338.021 23.864 337.885 25.432H334.657V24.232C334.657 22.912 334.445 21.964 334.021 21.388C333.605 20.804 332.921 20.512 331.969 20.512C330.857 20.512 330.037 20.852 329.509 21.532C328.989 22.204 328.729 23.2 328.729 24.52C328.729 25.728 328.989 26.664 329.509 27.328C330.037 27.984 330.809 28.312 331.825 28.312C332.465 28.312 333.013 28.172 333.469 27.892C333.925 27.612 334.273 27.208 334.513 26.68L337.777 27.616C337.289 28.8 336.517 29.72 335.461 30.376C334.413 31.032 333.265 31.36 332.017 31.36ZM327.721 25.432V23.008H336.312V25.432H327.721ZM342.885 31L338.925 18.016L342.117 18.04L344.469 25.768L346.857 18.04H349.569L351.957 25.768L354.309 18.04H357.501L353.541 31H351.045L348.213 22.552L345.381 31H342.885ZM364.267 31.36C362.635 31.36 361.315 30.992 360.307 30.256C359.307 29.512 358.699 28.464 358.483 27.112L361.819 26.608C361.955 27.216 362.255 27.692 362.719 28.036C363.191 28.38 363.787 28.552 364.507 28.552C365.099 28.552 365.555 28.44 365.875 28.216C366.195 27.984 366.355 27.664 366.355 27.256C366.355 27 366.291 26.796 366.163 26.644C366.035 26.484 365.747 26.328 365.299 26.176C364.859 26.024 364.171 25.824 363.235 25.576C362.179 25.304 361.335 25 360.703 24.664C360.071 24.328 359.615 23.928 359.335 23.464C359.055 22.992 358.915 22.424 358.915 21.76C358.915 20.928 359.127 20.208 359.551 19.6C359.975 18.984 360.571 18.512 361.339 18.184C362.115 17.848 363.027 17.68 364.075 17.68C365.091 17.68 365.991 17.836 366.775 18.148C367.559 18.46 368.191 18.904 368.671 19.48C369.159 20.056 369.459 20.736 369.571 21.52L366.235 22.12C366.179 21.64 365.971 21.26 365.611 20.98C365.251 20.7 364.763 20.536 364.147 20.488C363.547 20.448 363.063 20.528 362.695 20.728C362.335 20.928 362.155 21.216 362.155 21.592C362.155 21.816 362.231 22.004 362.383 22.156C362.543 22.308 362.867 22.464 363.355 22.624C363.851 22.784 364.603 22.992 365.611 23.248C366.595 23.504 367.383 23.804 367.975 24.148C368.575 24.484 369.011 24.892 369.283 25.372C369.555 25.844 369.691 26.416 369.691 27.088C369.691 28.416 369.211 29.46 368.251 30.22C367.291 30.98 365.963 31.36 364.267 31.36ZM372.568 31V13.36H375.832V31H372.568ZM385.454 31.36C384.126 31.36 382.954 31.076 381.938 30.508C380.93 29.932 380.138 29.144 379.562 28.144C378.994 27.136 378.71 25.984 378.71 24.688C378.71 23.272 378.99 22.04 379.55 20.992C380.11 19.944 380.882 19.132 381.866 18.556C382.85 17.972 383.982 17.68 385.262 17.68C386.622 17.68 387.778 18 388.73 18.64C389.682 19.28 390.386 20.18 390.842 21.34C391.298 22.5 391.458 23.864 391.322 25.432H388.094V24.232C388.094 22.912 387.882 21.964 387.458 21.388C387.042 20.804 386.358 20.512 385.406 20.512C384.294 20.512 383.474 20.852 382.946 21.532C382.426 22.204 382.166 23.2 382.166 24.52C382.166 25.728 382.426 26.664 382.946 27.328C383.474 27.984 384.246 28.312 385.262 28.312C385.902 28.312 386.45 28.172 386.906 27.892C387.362 27.612 387.71 27.208 387.95 26.68L391.214 27.616C390.726 28.8 389.954 29.72 388.898 30.376C387.85 31.032 386.702 31.36 385.454 31.36ZM381.158 25.432V23.008H389.75V25.432H381.158ZM401.808 31C400.912 31.168 400.032 31.24 399.168 31.216C398.312 31.2 397.544 31.052 396.864 30.772C396.192 30.484 395.68 30.024 395.328 29.392C395.008 28.8 394.84 28.2 394.824 27.592C394.808 26.976 394.8 26.28 394.8 25.504V14.44H398.064V25.312C398.064 25.816 398.068 26.272 398.076 26.68C398.092 27.08 398.176 27.4 398.328 27.64C398.616 28.096 399.076 28.344 399.708 28.384C400.34 28.424 401.04 28.392 401.808 28.288V31ZM392.592 20.56V18.04H401.808V20.56H392.592ZM412.472 31C411.576 31.168 410.696 31.24 409.832 31.216C408.976 31.2 408.208 31.052 407.528 30.772C406.856 30.484 406.344 30.024 405.992 29.392C405.672 28.8 405.504 28.2 405.488 27.592C405.472 26.976 405.464 26.28 405.464 25.504V14.44H408.728V25.312C408.728 25.816 408.732 26.272 408.74 26.68C408.756 27.08 408.84 27.4 408.992 27.64C409.28 28.096 409.74 28.344 410.372 28.384C411.004 28.424 411.704 28.392 412.472 28.288V31ZM403.256 20.56V18.04H412.472V20.56H403.256ZM420.681 31.36C419.353 31.36 418.181 31.076 417.165 30.508C416.157 29.932 415.365 29.144 414.789 28.144C414.221 27.136 413.937 25.984 413.937 24.688C413.937 23.272 414.217 22.04 414.777 20.992C415.337 19.944 416.109 19.132 417.093 18.556C418.077 17.972 419.209 17.68 420.489 17.68C421.849 17.68 423.005 18 423.957 18.64C424.909 19.28 425.613 20.18 426.069 21.34C426.525 22.5 426.685 23.864 426.549 25.432H423.321V24.232C423.321 22.912 423.109 21.964 422.685 21.388C422.269 20.804 421.585 20.512 420.633 20.512C419.521 20.512 418.701 20.852 418.173 21.532C417.653 22.204 417.393 23.2 417.393 24.52C417.393 25.728 417.653 26.664 418.173 27.328C418.701 27.984 419.473 28.312 420.489 28.312C421.129 28.312 421.677 28.172 422.133 27.892C422.589 27.612 422.937 27.208 423.177 26.68L426.441 27.616C425.953 28.8 425.181 29.72 424.125 30.376C423.077 31.032 421.929 31.36 420.681 31.36ZM416.385 25.432V23.008H424.977V25.432H416.385ZM429.258 31V18.04H432.138V21.208L431.826 20.8C431.994 20.352 432.218 19.944 432.498 19.576C432.778 19.208 433.122 18.904 433.53 18.664C433.842 18.472 434.182 18.324 434.55 18.22C434.918 18.108 435.298 18.04 435.69 18.016C436.082 17.984 436.474 17.992 436.866 18.04V21.088C436.506 20.976 436.086 20.94 435.606 20.98C435.134 21.012 434.706 21.12 434.322 21.304C433.938 21.48 433.614 21.716 433.35 22.012C433.086 22.3 432.886 22.644 432.75 23.044C432.614 23.436 432.546 23.88 432.546 24.376V31H429.258ZM451.729 31C450.833 31.168 449.953 31.24 449.089 31.216C448.233 31.2 447.465 31.052 446.785 30.772C446.113 30.484 445.601 30.024 445.249 29.392C444.929 28.8 444.761 28.2 444.745 27.592C444.729 26.976 444.721 26.28 444.721 25.504V14.44H447.985V25.312C447.985 25.816 447.989 26.272 447.997 26.68C448.013 27.08 448.097 27.4 448.249 27.64C448.537 28.096 448.997 28.344 449.629 28.384C450.261 28.424 450.961 28.392 451.729 28.288V31ZM442.513 20.56V18.04H451.729V20.56H442.513ZM459.746 31.36C458.442 31.36 457.298 31.068 456.314 30.484C455.33 29.9 454.562 29.096 454.01 28.072C453.466 27.04 453.194 25.856 453.194 24.52C453.194 23.168 453.474 21.98 454.034 20.956C454.594 19.924 455.366 19.12 456.35 18.544C457.334 17.968 458.466 17.68 459.746 17.68C461.05 17.68 462.194 17.972 463.178 18.556C464.17 19.14 464.942 19.948 465.494 20.98C466.046 22.004 466.322 23.184 466.322 24.52C466.322 25.864 466.042 27.052 465.482 28.084C464.93 29.108 464.158 29.912 463.166 30.496C462.182 31.072 461.042 31.36 459.746 31.36ZM459.746 28.312C460.794 28.312 461.574 27.96 462.086 27.256C462.606 26.544 462.866 25.632 462.866 24.52C462.866 23.368 462.602 22.448 462.074 21.76C461.554 21.072 460.778 20.728 459.746 20.728C459.034 20.728 458.45 20.888 457.994 21.208C457.538 21.528 457.198 21.972 456.974 22.54C456.758 23.108 456.65 23.768 456.65 24.52C456.65 25.68 456.91 26.604 457.43 27.292C457.958 27.972 458.73 28.312 459.746 28.312ZM478.83 31.36C477.198 31.36 475.878 30.992 474.87 30.256C473.87 29.512 473.262 28.464 473.046 27.112L476.382 26.608C476.518 27.216 476.818 27.692 477.282 28.036C477.754 28.38 478.35 28.552 479.07 28.552C479.662 28.552 480.118 28.44 480.438 28.216C480.758 27.984 480.918 27.664 480.918 27.256C480.918 27 480.854 26.796 480.726 26.644C480.598 26.484 480.31 26.328 479.862 26.176C479.422 26.024 478.734 25.824 477.798 25.576C476.742 25.304 475.898 25 475.266 24.664C474.634 24.328 474.178 23.928 473.898 23.464C473.618 22.992 473.478 22.424 473.478 21.76C473.478 20.928 473.69 20.208 474.114 19.6C474.538 18.984 475.134 18.512 475.902 18.184C476.678 17.848 477.59 17.68 478.638 17.68C479.654 17.68 480.554 17.836 481.338 18.148C482.122 18.46 482.754 18.904 483.234 19.48C483.722 20.056 484.022 20.736 484.134 21.52L480.798 22.12C480.742 21.64 480.534 21.26 480.174 20.98C479.814 20.7 479.326 20.536 478.71 20.488C478.11 20.448 477.626 20.528 477.258 20.728C476.898 20.928 476.718 21.216 476.718 21.592C476.718 21.816 476.794 22.004 476.946 22.156C477.106 22.308 477.43 22.464 477.918 22.624C478.414 22.784 479.166 22.992 480.174 23.248C481.158 23.504 481.946 23.804 482.538 24.148C483.138 24.484 483.574 24.892 483.846 25.372C484.118 25.844 484.254 26.416 484.254 27.088C484.254 28.416 483.774 29.46 482.814 30.22C481.854 30.98 480.526 31.36 478.83 31.36ZM494.667 31C493.771 31.168 492.891 31.24 492.027 31.216C491.171 31.2 490.403 31.052 489.723 30.772C489.051 30.484 488.539 30.024 488.187 29.392C487.867 28.8 487.699 28.2 487.683 27.592C487.667 26.976 487.659 26.28 487.659 25.504V14.44H490.923V25.312C490.923 25.816 490.927 26.272 490.935 26.68C490.951 27.08 491.035 27.4 491.187 27.64C491.475 28.096 491.935 28.344 492.567 28.384C493.199 28.424 493.899 28.392 494.667 28.288V31ZM485.451 20.56V18.04H494.667V20.56H485.451ZM501.155 31.36C500.227 31.36 499.439 31.184 498.791 30.832C498.151 30.472 497.663 29.996 497.327 29.404C496.999 28.804 496.835 28.144 496.835 27.424C496.835 26.824 496.927 26.276 497.111 25.78C497.295 25.284 497.591 24.848 497.999 24.472C498.415 24.088 498.971 23.768 499.667 23.512C500.147 23.336 500.719 23.18 501.383 23.044C502.047 22.908 502.799 22.78 503.639 22.66C504.479 22.532 505.403 22.392 506.411 22.24L505.235 22.888C505.235 22.12 505.051 21.556 504.683 21.196C504.315 20.836 503.699 20.656 502.835 20.656C502.355 20.656 501.855 20.772 501.335 21.004C500.815 21.236 500.451 21.648 500.243 22.24L497.291 21.304C497.619 20.232 498.235 19.36 499.139 18.688C500.043 18.016 501.275 17.68 502.835 17.68C503.979 17.68 504.995 17.856 505.883 18.208C506.771 18.56 507.443 19.168 507.899 20.032C508.155 20.512 508.307 20.992 508.355 21.472C508.403 21.952 508.427 22.488 508.427 23.08V31H505.571V28.336L505.979 28.888C505.347 29.76 504.663 30.392 503.927 30.784C503.199 31.168 502.275 31.36 501.155 31.36ZM501.851 28.792C502.451 28.792 502.955 28.688 503.363 28.48C503.779 28.264 504.107 28.02 504.347 27.748C504.595 27.476 504.763 27.248 504.851 27.064C505.019 26.712 505.115 26.304 505.139 25.84C505.171 25.368 505.187 24.976 505.187 24.664L506.147 24.904C505.179 25.064 504.395 25.2 503.795 25.312C503.195 25.416 502.711 25.512 502.343 25.6C501.975 25.688 501.651 25.784 501.371 25.888C501.051 26.016 500.791 26.156 500.591 26.308C500.399 26.452 500.255 26.612 500.159 26.788C500.071 26.964 500.027 27.16 500.027 27.376C500.027 27.672 500.099 27.928 500.243 28.144C500.395 28.352 500.607 28.512 500.879 28.624C501.151 28.736 501.475 28.792 501.851 28.792ZM512.477 36.76L514.973 29.896L515.021 31.912L509.381 18.04H512.765L516.557 27.856H515.789L519.557 18.04H522.821L515.501 36.76H512.477ZM111.92 50.24V47.36H115.184V50.24H111.92ZM111.92 65V52.04H115.184V65H111.92ZM127.614 65V58.88C127.614 58.584 127.598 58.208 127.566 57.752C127.534 57.288 127.434 56.824 127.266 56.36C127.098 55.896 126.822 55.508 126.438 55.196C126.062 54.884 125.526 54.728 124.83 54.728C124.55 54.728 124.25 54.772 123.93 54.86C123.61 54.948 123.31 55.12 123.03 55.376C122.75 55.624 122.518 55.992 122.334 56.48C122.158 56.968 122.07 57.616 122.07 58.424L120.198 57.536C120.198 56.512 120.406 55.552 120.822 54.656C121.238 53.76 121.862 53.036 122.694 52.484C123.534 51.932 124.59 51.656 125.862 51.656C126.878 51.656 127.706 51.828 128.346 52.172C128.986 52.516 129.482 52.952 129.834 53.48C130.194 54.008 130.45 54.56 130.602 55.136C130.754 55.704 130.846 56.224 130.878 56.696C130.91 57.168 130.926 57.512 130.926 57.728V65H127.614ZM118.758 65V52.04H121.662V56.336H122.07V65H118.758ZM135.119 65V52.088C135.119 51.76 135.127 51.388 135.143 50.972C135.159 50.556 135.223 50.136 135.335 49.712C135.455 49.288 135.671 48.904 135.983 48.56C136.383 48.112 136.815 47.808 137.279 47.648C137.751 47.48 138.207 47.392 138.647 47.384C139.087 47.368 139.463 47.36 139.775 47.36H141.383V50H139.895C139.383 50 139.003 50.132 138.755 50.396C138.507 50.652 138.383 50.96 138.383 51.32V65H135.119ZM133.079 54.56V52.04H141.383V54.56H133.079ZM148.66 65.36C147.356 65.36 146.212 65.068 145.228 64.484C144.244 63.9 143.476 63.096 142.924 62.072C142.38 61.04 142.108 59.856 142.108 58.52C142.108 57.168 142.388 55.98 142.948 54.956C143.508 53.924 144.28 53.12 145.264 52.544C146.248 51.968 147.38 51.68 148.66 51.68C149.964 51.68 151.108 51.972 152.092 52.556C153.084 53.14 153.856 53.948 154.408 54.98C154.96 56.004 155.236 57.184 155.236 58.52C155.236 59.864 154.956 61.052 154.396 62.084C153.844 63.108 153.072 63.912 152.08 64.496C151.096 65.072 149.956 65.36 148.66 65.36ZM148.66 62.312C149.708 62.312 150.488 61.96 151 61.256C151.52 60.544 151.78 59.632 151.78 58.52C151.78 57.368 151.516 56.448 150.988 55.76C150.468 55.072 149.692 54.728 148.66 54.728C147.948 54.728 147.364 54.888 146.908 55.208C146.452 55.528 146.112 55.972 145.888 56.54C145.672 57.108 145.564 57.768 145.564 58.52C145.564 59.68 145.824 60.604 146.344 61.292C146.872 61.972 147.644 62.312 148.66 62.312ZM157.875 65V52.04H160.755V55.208L160.443 54.8C160.611 54.352 160.835 53.944 161.115 53.576C161.395 53.208 161.739 52.904 162.147 52.664C162.459 52.472 162.799 52.324 163.167 52.22C163.535 52.108 163.915 52.04 164.307 52.016C164.699 51.984 165.091 51.992 165.483 52.04V55.088C165.123 54.976 164.703 54.94 164.223 54.98C163.751 55.012 163.323 55.12 162.939 55.304C162.555 55.48 162.231 55.716 161.967 56.012C161.703 56.3 161.503 56.644 161.367 57.044C161.231 57.436 161.163 57.88 161.163 58.376V65H157.875ZM183.366 65V57.344C183.366 56.488 183.162 55.824 182.754 55.352C182.354 54.872 181.798 54.632 181.086 54.632C180.63 54.632 180.234 54.74 179.898 54.956C179.562 55.164 179.298 55.46 179.106 55.844C178.922 56.22 178.83 56.656 178.83 57.152L177.462 56.24C177.462 55.352 177.67 54.568 178.086 53.888C178.51 53.208 179.074 52.68 179.778 52.304C180.49 51.92 181.278 51.728 182.142 51.728C183.622 51.728 184.738 52.168 185.49 53.048C186.25 53.92 186.63 55.064 186.63 56.48V65H183.366ZM167.742 65V52.04H170.622V56.336H171.03V65H167.742ZM175.566 65V57.344C175.566 56.488 175.362 55.824 174.954 55.352C174.554 54.872 173.998 54.632 173.286 54.632C172.606 54.632 172.058 54.868 171.642 55.34C171.234 55.804 171.03 56.408 171.03 57.152L169.662 56.192C169.662 55.344 169.874 54.584 170.298 53.912C170.722 53.24 171.29 52.708 172.002 52.316C172.722 51.924 173.526 51.728 174.414 51.728C175.43 51.728 176.262 51.944 176.91 52.376C177.566 52.808 178.05 53.384 178.362 54.104C178.674 54.824 178.83 55.616 178.83 56.48V65H175.566ZM195.54 65.36C194.212 65.36 193.04 65.076 192.024 64.508C191.016 63.932 190.224 63.144 189.648 62.144C189.08 61.136 188.796 59.984 188.796 58.688C188.796 57.272 189.076 56.04 189.636 54.992C190.196 53.944 190.968 53.132 191.952 52.556C192.936 51.972 194.068 51.68 195.348 51.68C196.708 51.68 197.864 52 198.816 52.64C199.768 53.28 200.472 54.18 200.928 55.34C201.384 56.5 201.544 57.864 201.408 59.432H198.18V58.232C198.18 56.912 197.968 55.964 197.544 55.388C197.128 54.804 196.444 54.512 195.492 54.512C194.38 54.512 193.56 54.852 193.032 55.532C192.512 56.204 192.252 57.2 192.252 58.52C192.252 59.728 192.512 60.664 193.032 61.328C193.56 61.984 194.332 62.312 195.348 62.312C195.988 62.312 196.536 62.172 196.992 61.892C197.448 61.612 197.796 61.208 198.036 60.68L201.3 61.616C200.812 62.8 200.04 63.72 198.984 64.376C197.936 65.032 196.788 65.36 195.54 65.36ZM191.244 59.432V57.008H199.836V59.432H191.244ZM209.374 65.36C208.182 65.36 207.138 65.06 206.242 64.46C205.346 63.86 204.646 63.044 204.142 62.012C203.646 60.98 203.398 59.816 203.398 58.52C203.398 57.2 203.65 56.028 204.154 55.004C204.666 53.972 205.382 53.16 206.302 52.568C207.222 51.976 208.302 51.68 209.542 51.68C210.774 51.68 211.81 51.98 212.65 52.58C213.49 53.18 214.126 53.996 214.557 55.028C214.99 56.06 215.206 57.224 215.206 58.52C215.206 59.816 214.986 60.98 214.546 62.012C214.114 63.044 213.466 63.86 212.602 64.46C211.738 65.06 210.662 65.36 209.374 65.36ZM209.902 62.456C210.63 62.456 211.21 62.292 211.642 61.964C212.082 61.636 212.398 61.176 212.59 60.584C212.782 59.992 212.878 59.304 212.878 58.52C212.878 57.736 212.782 57.048 212.59 56.456C212.398 55.864 212.09 55.404 211.666 55.076C211.25 54.748 210.702 54.584 210.022 54.584C209.294 54.584 208.694 54.764 208.222 55.124C207.758 55.476 207.414 55.952 207.19 56.552C206.966 57.144 206.854 57.8 206.854 58.52C206.854 59.248 206.962 59.912 207.178 60.512C207.394 61.104 207.726 61.576 208.174 61.928C208.622 62.28 209.198 62.456 209.902 62.456ZM212.878 65V56.12H212.47V47.72H215.758V65H212.878ZM227.522 65.36C226.594 65.36 225.806 65.184 225.158 64.832C224.518 64.472 224.03 63.996 223.694 63.404C223.366 62.804 223.202 62.144 223.202 61.424C223.202 60.824 223.294 60.276 223.478 59.78C223.662 59.284 223.958 58.848 224.366 58.472C224.782 58.088 225.338 57.768 226.034 57.512C226.514 57.336 227.086 57.18 227.75 57.044C228.414 56.908 229.166 56.78 230.006 56.66C230.846 56.532 231.77 56.392 232.778 56.24L231.602 56.888C231.602 56.12 231.418 55.556 231.05 55.196C230.682 54.836 230.066 54.656 229.202 54.656C228.722 54.656 228.222 54.772 227.702 55.004C227.182 55.236 226.818 55.648 226.61 56.24L223.658 55.304C223.986 54.232 224.602 53.36 225.506 52.688C226.41 52.016 227.642 51.68 229.202 51.68C230.346 51.68 231.362 51.856 232.25 52.208C233.138 52.56 233.81 53.168 234.266 54.032C234.522 54.512 234.674 54.992 234.722 55.472C234.77 55.952 234.794 56.488 234.794 57.08V65H231.938V62.336L232.346 62.888C231.714 63.76 231.03 64.392 230.294 64.784C229.566 65.168 228.642 65.36 227.522 65.36ZM228.218 62.792C228.818 62.792 229.322 62.688 229.73 62.48C230.146 62.264 230.474 62.02 230.714 61.748C230.962 61.476 231.13 61.248 231.218 61.064C231.386 60.712 231.482 60.304 231.506 59.84C231.538 59.368 231.554 58.976 231.554 58.664L232.514 58.904C231.546 59.064 230.762 59.2 230.162 59.312C229.562 59.416 229.078 59.512 228.71 59.6C228.342 59.688 228.018 59.784 227.738 59.888C227.418 60.016 227.158 60.156 226.958 60.308C226.766 60.452 226.622 60.612 226.526 60.788C226.438 60.964 226.394 61.16 226.394 61.376C226.394 61.672 226.466 61.928 226.61 62.144C226.762 62.352 226.974 62.512 227.246 62.624C227.518 62.736 227.842 62.792 228.218 62.792ZM244.274 65.36C242.986 65.36 241.91 65.06 241.046 64.46C240.182 63.86 239.53 63.044 239.09 62.012C238.658 60.98 238.442 59.816 238.442 58.52C238.442 57.224 238.658 56.06 239.09 55.028C239.522 53.996 240.158 53.18 240.998 52.58C241.838 51.98 242.874 51.68 244.106 51.68C245.346 51.68 246.426 51.976 247.346 52.568C248.266 53.16 248.978 53.972 249.482 55.004C249.994 56.028 250.25 57.2 250.25 58.52C250.25 59.816 249.998 60.98 249.494 62.012C248.998 63.044 248.302 63.86 247.406 64.46C246.51 65.06 245.466 65.36 244.274 65.36ZM237.89 65V47.72H241.178V56.12H240.77V65H237.89ZM243.746 62.456C244.45 62.456 245.026 62.28 245.474 61.928C245.922 61.576 246.254 61.104 246.47 60.512C246.686 59.912 246.794 59.248 246.794 58.52C246.794 57.8 246.682 57.144 246.458 56.552C246.234 55.952 245.886 55.476 245.414 55.124C244.95 54.764 244.354 54.584 243.626 54.584C242.946 54.584 242.394 54.748 241.97 55.076C241.554 55.404 241.25 55.864 241.058 56.456C240.866 57.048 240.77 57.736 240.77 58.52C240.77 59.304 240.866 59.992 241.058 60.584C241.25 61.176 241.562 61.636 241.994 61.964C242.434 62.292 243.018 62.456 243.746 62.456ZM258.723 65.36C257.419 65.36 256.275 65.068 255.291 64.484C254.307 63.9 253.539 63.096 252.987 62.072C252.443 61.04 252.171 59.856 252.171 58.52C252.171 57.168 252.451 55.98 253.011 54.956C253.571 53.924 254.343 53.12 255.327 52.544C256.311 51.968 257.443 51.68 258.723 51.68C260.027 51.68 261.171 51.972 262.155 52.556C263.147 53.14 263.919 53.948 264.471 54.98C265.023 56.004 265.299 57.184 265.299 58.52C265.299 59.864 265.019 61.052 264.459 62.084C263.907 63.108 263.135 63.912 262.143 64.496C261.159 65.072 260.019 65.36 258.723 65.36ZM258.723 62.312C259.771 62.312 260.551 61.96 261.063 61.256C261.583 60.544 261.843 59.632 261.843 58.52C261.843 57.368 261.579 56.448 261.051 55.76C260.531 55.072 259.755 54.728 258.723 54.728C258.011 54.728 257.427 54.888 256.971 55.208C256.515 55.528 256.175 55.972 255.951 56.54C255.735 57.108 255.627 57.768 255.627 58.52C255.627 59.68 255.887 60.604 256.407 61.292C256.935 61.972 257.707 62.312 258.723 62.312ZM272.762 65.384C271.746 65.384 270.918 65.212 270.278 64.868C269.638 64.524 269.138 64.088 268.778 63.56C268.426 63.032 268.174 62.484 268.022 61.916C267.87 61.34 267.778 60.816 267.746 60.344C267.714 59.872 267.698 59.528 267.698 59.312V52.04H271.01V58.16C271.01 58.456 271.026 58.836 271.058 59.3C271.09 59.756 271.19 60.216 271.358 60.68C271.526 61.144 271.798 61.532 272.174 61.844C272.558 62.156 273.098 62.312 273.794 62.312C274.074 62.312 274.374 62.268 274.694 62.18C275.014 62.092 275.314 61.924 275.594 61.676C275.874 61.42 276.102 61.048 276.278 60.56C276.462 60.064 276.554 59.416 276.554 58.616L278.426 59.504C278.426 60.528 278.218 61.488 277.802 62.384C277.386 63.28 276.758 64.004 275.918 64.556C275.086 65.108 274.034 65.384 272.762 65.384ZM276.962 65V60.704H276.554V52.04H279.842V65H276.962ZM290.972 65C290.076 65.168 289.196 65.24 288.332 65.216C287.476 65.2 286.708 65.052 286.028 64.772C285.356 64.484 284.844 64.024 284.492 63.392C284.172 62.8 284.004 62.2 283.988 61.592C283.972 60.976 283.964 60.28 283.964 59.504V48.44H287.228V59.312C287.228 59.816 287.232 60.272 287.24 60.68C287.256 61.08 287.34 61.4 287.492 61.64C287.78 62.096 288.24 62.344 288.872 62.384C289.504 62.424 290.204 62.392 290.972 62.288V65ZM281.756 54.56V52.04H290.972V54.56H281.756ZM298.904 65V47.36H302.168V65H298.904ZM309.366 65.36C308.438 65.36 307.65 65.184 307.002 64.832C306.362 64.472 305.874 63.996 305.538 63.404C305.21 62.804 305.046 62.144 305.046 61.424C305.046 60.824 305.138 60.276 305.322 59.78C305.506 59.284 305.802 58.848 306.21 58.472C306.626 58.088 307.182 57.768 307.878 57.512C308.358 57.336 308.93 57.18 309.594 57.044C310.258 56.908 311.01 56.78 311.85 56.66C312.69 56.532 313.614 56.392 314.622 56.24L313.446 56.888C313.446 56.12 313.262 55.556 312.894 55.196C312.526 54.836 311.91 54.656 311.046 54.656C310.566 54.656 310.066 54.772 309.546 55.004C309.026 55.236 308.662 55.648 308.454 56.24L305.502 55.304C305.83 54.232 306.446 53.36 307.35 52.688C308.254 52.016 309.486 51.68 311.046 51.68C312.19 51.68 313.206 51.856 314.094 52.208C314.982 52.56 315.654 53.168 316.11 54.032C316.366 54.512 316.518 54.992 316.566 55.472C316.614 55.952 316.638 56.488 316.638 57.08V65H313.782V62.336L314.19 62.888C313.558 63.76 312.874 64.392 312.138 64.784C311.41 65.168 310.486 65.36 309.366 65.36ZM310.062 62.792C310.662 62.792 311.166 62.688 311.574 62.48C311.99 62.264 312.318 62.02 312.558 61.748C312.806 61.476 312.974 61.248 313.062 61.064C313.23 60.712 313.326 60.304 313.35 59.84C313.382 59.368 313.398 58.976 313.398 58.664L314.358 58.904C313.39 59.064 312.606 59.2 312.006 59.312C311.406 59.416 310.922 59.512 310.554 59.6C310.186 59.688 309.862 59.784 309.582 59.888C309.262 60.016 309.002 60.156 308.802 60.308C308.61 60.452 308.466 60.612 308.37 60.788C308.282 60.964 308.238 61.16 308.238 61.376C308.238 61.672 308.31 61.928 308.454 62.144C308.606 62.352 308.818 62.512 309.09 62.624C309.362 62.736 309.686 62.792 310.062 62.792ZM327.534 65C326.638 65.168 325.758 65.24 324.894 65.216C324.038 65.2 323.27 65.052 322.59 64.772C321.918 64.484 321.406 64.024 321.054 63.392C320.734 62.8 320.566 62.2 320.55 61.592C320.534 60.976 320.526 60.28 320.526 59.504V48.44H323.79V59.312C323.79 59.816 323.794 60.272 323.802 60.68C323.818 61.08 323.902 61.4 324.054 61.64C324.342 62.096 324.802 62.344 325.434 62.384C326.066 62.424 326.766 62.392 327.534 62.288V65ZM318.318 54.56V52.04H327.534V54.56H318.318ZM335.743 65.36C334.415 65.36 333.243 65.076 332.227 64.508C331.219 63.932 330.427 63.144 329.851 62.144C329.283 61.136 328.999 59.984 328.999 58.688C328.999 57.272 329.279 56.04 329.839 54.992C330.399 53.944 331.171 53.132 332.155 52.556C333.139 51.972 334.271 51.68 335.551 51.68C336.911 51.68 338.067 52 339.019 52.64C339.971 53.28 340.675 54.18 341.131 55.34C341.587 56.5 341.747 57.864 341.611 59.432H338.383V58.232C338.383 56.912 338.171 55.964 337.747 55.388C337.331 54.804 336.647 54.512 335.695 54.512C334.583 54.512 333.763 54.852 333.235 55.532C332.715 56.204 332.455 57.2 332.455 58.52C332.455 59.728 332.715 60.664 333.235 61.328C333.763 61.984 334.535 62.312 335.551 62.312C336.191 62.312 336.739 62.172 337.195 61.892C337.651 61.612 337.999 61.208 338.239 60.68L341.503 61.616C341.015 62.8 340.243 63.72 339.187 64.376C338.139 65.032 336.991 65.36 335.743 65.36ZM331.447 59.432V57.008H340.039V59.432H331.447ZM349.385 65.36C347.753 65.36 346.433 64.992 345.425 64.256C344.425 63.512 343.817 62.464 343.601 61.112L346.937 60.608C347.073 61.216 347.373 61.692 347.837 62.036C348.309 62.38 348.905 62.552 349.625 62.552C350.217 62.552 350.673 62.44 350.993 62.216C351.313 61.984 351.473 61.664 351.473 61.256C351.473 61 351.409 60.796 351.281 60.644C351.153 60.484 350.865 60.328 350.417 60.176C349.977 60.024 349.289 59.824 348.353 59.576C347.297 59.304 346.453 59 345.821 58.664C345.189 58.328 344.733 57.928 344.453 57.464C344.173 56.992 344.033 56.424 344.033 55.76C344.033 54.928 344.245 54.208 344.669 53.6C345.093 52.984 345.689 52.512 346.457 52.184C347.233 51.848 348.145 51.68 349.193 51.68C350.209 51.68 351.109 51.836 351.893 52.148C352.677 52.46 353.309 52.904 353.789 53.48C354.277 54.056 354.577 54.736 354.689 55.52L351.353 56.12C351.297 55.64 351.089 55.26 350.729 54.98C350.369 54.7 349.881 54.536 349.265 54.488C348.665 54.448 348.181 54.528 347.813 54.728C347.453 54.928 347.273 55.216 347.273 55.592C347.273 55.816 347.349 56.004 347.501 56.156C347.661 56.308 347.985 56.464 348.473 56.624C348.969 56.784 349.721 56.992 350.729 57.248C351.713 57.504 352.501 57.804 353.093 58.148C353.693 58.484 354.129 58.892 354.401 59.372C354.673 59.844 354.809 60.416 354.809 61.088C354.809 62.416 354.329 63.46 353.369 64.22C352.409 64.98 351.081 65.36 349.385 65.36ZM365.222 65C364.326 65.168 363.446 65.24 362.582 65.216C361.726 65.2 360.958 65.052 360.278 64.772C359.606 64.484 359.094 64.024 358.742 63.392C358.422 62.8 358.254 62.2 358.238 61.592C358.222 60.976 358.214 60.28 358.214 59.504V48.44H361.478V59.312C361.478 59.816 361.482 60.272 361.49 60.68C361.506 61.08 361.59 61.4 361.742 61.64C362.03 62.096 362.49 62.344 363.122 62.384C363.754 62.424 364.454 62.392 365.222 62.288V65ZM356.006 54.56V52.04H365.222V54.56H356.006ZM377.738 65.384C376.722 65.384 375.894 65.212 375.254 64.868C374.614 64.524 374.114 64.088 373.754 63.56C373.402 63.032 373.15 62.484 372.998 61.916C372.846 61.34 372.754 60.816 372.722 60.344C372.69 59.872 372.674 59.528 372.674 59.312V52.04H375.986V58.16C375.986 58.456 376.002 58.836 376.034 59.3C376.066 59.756 376.166 60.216 376.334 60.68C376.502 61.144 376.774 61.532 377.15 61.844C377.534 62.156 378.074 62.312 378.77 62.312C379.05 62.312 379.35 62.268 379.67 62.18C379.99 62.092 380.29 61.924 380.57 61.676C380.85 61.42 381.078 61.048 381.254 60.56C381.438 60.064 381.53 59.416 381.53 58.616L383.402 59.504C383.402 60.528 383.194 61.488 382.778 62.384C382.362 63.28 381.734 64.004 380.894 64.556C380.062 65.108 379.01 65.384 377.738 65.384ZM381.938 65V60.704H381.53V52.04H384.818V65H381.938ZM394.532 65.36C393.244 65.36 392.168 65.06 391.304 64.46C390.44 63.86 389.788 63.044 389.348 62.012C388.916 60.98 388.7 59.816 388.7 58.52C388.7 57.224 388.916 56.06 389.348 55.028C389.78 53.996 390.416 53.18 391.256 52.58C392.096 51.98 393.132 51.68 394.364 51.68C395.604 51.68 396.684 51.976 397.604 52.568C398.524 53.16 399.236 53.972 399.74 55.004C400.252 56.028 400.508 57.2 400.508 58.52C400.508 59.816 400.256 60.98 399.752 62.012C399.256 63.044 398.56 63.86 397.664 64.46C396.768 65.06 395.724 65.36 394.532 65.36ZM388.148 70.76V52.04H391.028V60.92H391.436V70.76H388.148ZM394.004 62.456C394.708 62.456 395.284 62.28 395.732 61.928C396.18 61.576 396.512 61.104 396.728 60.512C396.944 59.912 397.052 59.248 397.052 58.52C397.052 57.8 396.94 57.144 396.716 56.552C396.492 55.952 396.144 55.476 395.672 55.124C395.208 54.764 394.612 54.584 393.884 54.584C393.204 54.584 392.652 54.748 392.228 55.076C391.812 55.404 391.508 55.864 391.316 56.456C391.124 57.048 391.028 57.736 391.028 58.52C391.028 59.304 391.124 59.992 391.316 60.584C391.508 61.176 391.82 61.636 392.252 61.964C392.692 62.292 393.276 62.456 394.004 62.456ZM408.405 65.36C407.213 65.36 406.169 65.06 405.273 64.46C404.377 63.86 403.677 63.044 403.173 62.012C402.677 60.98 402.429 59.816 402.429 58.52C402.429 57.2 402.681 56.028 403.185 55.004C403.697 53.972 404.413 53.16 405.333 52.568C406.253 51.976 407.333 51.68 408.573 51.68C409.805 51.68 410.841 51.98 411.681 52.58C412.521 53.18 413.157 53.996 413.589 55.028C414.021 56.06 414.237 57.224 414.237 58.52C414.237 59.816 414.017 60.98 413.577 62.012C413.145 63.044 412.497 63.86 411.633 64.46C410.769 65.06 409.693 65.36 408.405 65.36ZM408.933 62.456C409.661 62.456 410.241 62.292 410.673 61.964C411.113 61.636 411.429 61.176 411.621 60.584C411.813 59.992 411.909 59.304 411.909 58.52C411.909 57.736 411.813 57.048 411.621 56.456C411.429 55.864 411.121 55.404 410.697 55.076C410.281 54.748 409.733 54.584 409.053 54.584C408.325 54.584 407.725 54.764 407.253 55.124C406.789 55.476 406.445 55.952 406.221 56.552C405.997 57.144 405.885 57.8 405.885 58.52C405.885 59.248 405.993 59.912 406.209 60.512C406.425 61.104 406.757 61.576 407.205 61.928C407.653 62.28 408.229 62.456 408.933 62.456ZM411.909 65V56.12H411.501V47.72H414.789V65H411.909ZM421.749 65.36C420.821 65.36 420.033 65.184 419.385 64.832C418.745 64.472 418.257 63.996 417.921 63.404C417.593 62.804 417.429 62.144 417.429 61.424C417.429 60.824 417.521 60.276 417.705 59.78C417.889 59.284 418.185 58.848 418.593 58.472C419.009 58.088 419.565 57.768 420.261 57.512C420.741 57.336 421.313 57.18 421.977 57.044C422.641 56.908 423.393 56.78 424.233 56.66C425.073 56.532 425.997 56.392 427.005 56.24L425.829 56.888C425.829 56.12 425.645 55.556 425.277 55.196C424.909 54.836 424.293 54.656 423.429 54.656C422.949 54.656 422.449 54.772 421.929 55.004C421.409 55.236 421.045 55.648 420.837 56.24L417.885 55.304C418.213 54.232 418.829 53.36 419.733 52.688C420.637 52.016 421.869 51.68 423.429 51.68C424.573 51.68 425.589 51.856 426.477 52.208C427.365 52.56 428.037 53.168 428.493 54.032C428.749 54.512 428.901 54.992 428.949 55.472C428.997 55.952 429.021 56.488 429.021 57.08V65H426.165V62.336L426.573 62.888C425.941 63.76 425.257 64.392 424.521 64.784C423.793 65.168 422.869 65.36 421.749 65.36ZM422.445 62.792C423.045 62.792 423.549 62.688 423.957 62.48C424.373 62.264 424.701 62.02 424.941 61.748C425.189 61.476 425.357 61.248 425.445 61.064C425.613 60.712 425.709 60.304 425.733 59.84C425.765 59.368 425.781 58.976 425.781 58.664L426.741 58.904C425.773 59.064 424.989 59.2 424.389 59.312C423.789 59.416 423.305 59.512 422.937 59.6C422.569 59.688 422.245 59.784 421.965 59.888C421.645 60.016 421.385 60.156 421.185 60.308C420.993 60.452 420.849 60.612 420.753 60.788C420.665 60.964 420.621 61.16 420.621 61.376C420.621 61.672 420.693 61.928 420.837 62.144C420.989 62.352 421.201 62.512 421.473 62.624C421.745 62.736 422.069 62.792 422.445 62.792ZM439.917 65C439.021 65.168 438.141 65.24 437.277 65.216C436.421 65.2 435.653 65.052 434.973 64.772C434.301 64.484 433.789 64.024 433.437 63.392C433.117 62.8 432.949 62.2 432.933 61.592C432.917 60.976 432.909 60.28 432.909 59.504V48.44H436.173V59.312C436.173 59.816 436.177 60.272 436.185 60.68C436.201 61.08 436.285 61.4 436.437 61.64C436.725 62.096 437.185 62.344 437.817 62.384C438.449 62.424 439.149 62.392 439.917 62.288V65ZM430.701 54.56V52.04H439.917V54.56H430.701ZM448.126 65.36C446.798 65.36 445.626 65.076 444.61 64.508C443.602 63.932 442.81 63.144 442.234 62.144C441.666 61.136 441.382 59.984 441.382 58.688C441.382 57.272 441.662 56.04 442.222 54.992C442.782 53.944 443.554 53.132 444.538 52.556C445.522 51.972 446.654 51.68 447.934 51.68C449.294 51.68 450.45 52 451.402 52.64C452.354 53.28 453.058 54.18 453.514 55.34C453.97 56.5 454.13 57.864 453.994 59.432H450.766V58.232C450.766 56.912 450.554 55.964 450.13 55.388C449.714 54.804 449.03 54.512 448.078 54.512C446.966 54.512 446.146 54.852 445.618 55.532C445.098 56.204 444.838 57.2 444.838 58.52C444.838 59.728 445.098 60.664 445.618 61.328C446.146 61.984 446.918 62.312 447.934 62.312C448.574 62.312 449.122 62.172 449.578 61.892C450.034 61.612 450.382 61.208 450.622 60.68L453.886 61.616C453.398 62.8 452.626 63.72 451.57 64.376C450.522 65.032 449.374 65.36 448.126 65.36ZM443.83 59.432V57.008H452.422V59.432H443.83ZM461.767 65.36C460.135 65.36 458.815 64.992 457.807 64.256C456.807 63.512 456.199 62.464 455.983 61.112L459.319 60.608C459.455 61.216 459.755 61.692 460.219 62.036C460.691 62.38 461.287 62.552 462.007 62.552C462.599 62.552 463.055 62.44 463.375 62.216C463.695 61.984 463.855 61.664 463.855 61.256C463.855 61 463.791 60.796 463.663 60.644C463.535 60.484 463.247 60.328 462.799 60.176C462.359 60.024 461.671 59.824 460.735 59.576C459.679 59.304 458.835 59 458.203 58.664C457.571 58.328 457.115 57.928 456.835 57.464C456.555 56.992 456.415 56.424 456.415 55.76C456.415 54.928 456.627 54.208 457.051 53.6C457.475 52.984 458.071 52.512 458.839 52.184C459.615 51.848 460.527 51.68 461.575 51.68C462.591 51.68 463.491 51.836 464.275 52.148C465.059 52.46 465.691 52.904 466.171 53.48C466.659 54.056 466.959 54.736 467.071 55.52L463.735 56.12C463.679 55.64 463.471 55.26 463.111 54.98C462.751 54.7 462.263 54.536 461.647 54.488C461.047 54.448 460.563 54.528 460.195 54.728C459.835 54.928 459.655 55.216 459.655 55.592C459.655 55.816 459.731 56.004 459.883 56.156C460.043 56.308 460.367 56.464 460.855 56.624C461.351 56.784 462.103 56.992 463.111 57.248C464.095 57.504 464.883 57.804 465.475 58.148C466.075 58.484 466.511 58.892 466.783 59.372C467.055 59.844 467.191 60.416 467.191 61.088C467.191 62.416 466.711 63.46 465.751 64.22C464.791 64.98 463.463 65.36 461.767 65.36Z" fill="#0B0F19"/>
<defs>
<linearGradient id="paint0_linear_4632_11004" x1="-2.5" y1="54.0004" x2="59.5" y2="19.0004" gradientUnits="userSpaceOnUse">
<stop stop-color="#FFBA08"/>
<stop offset="1" stop-color="#FFDB7E"/>
</linearGradient>
<linearGradient id="paint1_linear_4632_11004" x1="42.5" y1="37.5" x2="60" y2="-1.5" gradientUnits="userSpaceOnUse">
<stop stop-color="#7A1CD0"/>
<stop offset="1" stop-color="#6366F1"/>
</linearGradient>
<clipPath id="clip0_4632_11004">
<rect width="78" height="78" fill="white"/>
</clipPath>
</defs>
</svg>
